<svg width="48" height="48" viewBox="0 0 48 48" fill="none" xmlns="http://www.w3.org/2000/svg">
<path d="M43.158 13.71C43.438 12.78 43.158 12.098 41.834 12.098H37.448C36.332 12.098 35.822 12.688 35.542 13.336C35.542 13.336 33.312 18.774 30.152 22.3C29.132 23.326 28.666 23.65 28.11 23.65C27.832 23.65 27.428 23.326 27.428 22.396V13.71C27.428 12.594 27.106 12.098 26.176 12.098H19.284C18.588 12.098 18.168 12.614 18.168 13.106C18.168 14.162 19.748 14.406 19.91 17.382V23.838C19.91 25.252 19.656 25.51 19.096 25.51C17.61 25.51 13.994 20.052 11.848 13.804C11.43 12.59 11.008 12.1 9.888 12.1H5.504C4.25 12.1 4 12.69 4 13.338C4 14.502 5.486 20.262 10.922 27.88C14.546 33.082 19.648 35.902 24.296 35.902C27.082 35.902 27.426 35.276 27.426 34.196V30.264C27.426 29.012 27.692 28.76 28.574 28.76C29.222 28.76 30.338 29.088 32.94 31.594C35.912 34.566 36.404 35.9 38.074 35.9H42.458C43.71 35.9 44.336 35.274 43.976 34.038C43.582 32.808 42.162 31.018 40.278 28.9C39.254 27.692 37.724 26.392 37.258 25.742C36.608 24.904 36.796 24.534 37.258 23.79C37.26 23.792 42.602 16.268 43.158 13.71V13.71Z" fill="white"/>
</svg>
