<?xml version="1.0" encoding="utf-8"?><svg xmlns="http://www.w3.org/2000/svg" xmlns:xlink="http://www.w3.org/1999/xlink"><symbol viewBox="0 0 10 11" id="arrow-up" xmlns="http://www.w3.org/2000/svg"><path fill-rule="evenodd" clip-rule="evenodd" d="M.406 6.238a.812.812 0 010-1.148l4.02-4.02a.812.812 0 011.148 0l.004.004L9.594 5.09a.812.812 0 01-1.149 1.148L5.841 3.634v6.386a.812.812 0 11-1.624 0V3.575L1.554 6.238a.812.812 0 01-1.148 0z"/></symbol><symbol viewBox="0 0 32 24" id="mail" xmlns="http://www.w3.org/2000/svg"><path d="M6 0a6 6 0 00-6 6v12a6 6 0 006 6h20a6 6 0 006-6V6a6 6 0 00-6-6H6zM4 6a2 2 0 012-2h20a2 2 0 012 2v.68l-12 5.144L4 6.68V6zm0 5.032l11.212 4.804a2 2 0 001.576 0L28 11.032V18a2 2 0 01-2 2H6a2 2 0 01-2-2v-6.968z"/></symbol><symbol viewBox="0 0 10 14" id="mark" xmlns="http://www.w3.org/2000/svg"><path fill-rule="evenodd" clip-rule="evenodd" d="M10 5.002c0 1.31-.504 2.503-1.328 3.394l-3.788 4.43a.5.5 0 01-.884-.32V9.902a5.002 5.002 0 011-9.9 5 5 0 015 5zm-5-3a3 3 0 110 6 3 3 0 010-6z"/></symbol><symbol viewBox="0 0 16 16" id="minus" xmlns="http://www.w3.org/2000/svg"><rect x="2" y="7" width="12" height="2" rx="1"/></symbol><symbol viewBox="0 0 16 16" id="plus" xmlns="http://www.w3.org/2000/svg"><path d="M2 8a1 1 0 011-1h10a1 1 0 110 2H3a1 1 0 01-1-1z"/><path d="M8 2a1 1 0 011 1v10a1 1 0 11-2 0V3a1 1 0 011-1z"/></symbol><symbol viewBox="0 0 17 3" id="points" xmlns="http://www.w3.org/2000/svg"><path class="fcls-1" d="M1.5 0A1.5 1.5 0 110 1.5 1.5 1.5 0 011.5 0zm7 0A1.5 1.5 0 117 1.5 1.5 1.5 0 018.5 0zm7 0A1.5 1.5 0 1114 1.5 1.5 1.5 0 0115.5 0z"/></symbol><symbol viewBox="0 0 19 19" id="search" xmlns="http://www.w3.org/2000/svg"><path fill-rule="evenodd" clip-rule="evenodd" d="M8.998.002a8 8 0 104.906 14.32l3.387 3.387a1 1 0 101.414-1.414l-3.387-3.387A8 8 0 008.998.002zm-6 8a6 6 0 1112 0 6 6 0 01-12 0z"/></symbol><symbol viewBox="0 0 14 18" id="tel" xmlns="http://www.w3.org/2000/svg"><path fill-rule="evenodd" clip-rule="evenodd" d="M6.631 7.978c.174.392.373.81.524 1.094.115.217.344.608.598 1.002l.027-.018c.645-.42 1.306-.374 1.552-.348.319.034.608.118.824.193.444.155.901.383 1.295.608.402.23.81.496 1.156.76.172.133.352.282.516.44.137.133.377.38.559.712.275.5.31 1.011.316 1.252a4.283 4.283 0 01-.377 1.866 2.797 2.797 0 01-.912 1.12c-.433.303-.608.402-1.139.703l-.196.112c-1.354.77-2.741.508-3.493.367l-.132-.025c-.992-.18-2.035-.876-2.94-1.729-.976-.92-2.012-2.232-2.952-3.987C-.033 8.57-.114 5.483.063 4.45a5.522 5.522 0 01.615-1.682c.298-.535.775-1.196 1.486-1.666.699-.461.923-.604 1.386-.835A2.707 2.707 0 014.85.002c.335.011.657.074.94.16.502.15 1.235.482 1.749 1.141.31.398.425.835.465.992.06.233.099.473.126.692.054.442.076.948.068 1.432a8.673 8.673 0 01-.14 1.488c-.047.235-.12.53-.25.824-.1.228-.376.8-1.017 1.162-.054.03-.107.059-.159.085zm-2.263-.294c.185.607.714 1.75 1.019 2.324.305.576 1.084 1.838 1.518 2.277.434.44.783.334.993.235.098-.047.218-.157.364-.291.166-.154.367-.34.61-.497.453-.294 2.761 1.114 3.056 1.65.172.315.025 1.364-.367 1.64-.353.246-.454.303-.983.604l-.193.11c-.704.4-1.426.268-2.276.113-.85-.155-2.79-1.524-4.487-4.693C1.925 7.988 1.939 5.35 2.036 4.787c.096-.563.538-1.559 1.231-2.016.693-.457.83-.541 1.176-.714.347-.173 1.197.066 1.516.475.319.41.364 3.328-.152 3.619-.263.148-.51.23-.713.297-.195.065-.35.116-.44.2a2.49 2.49 0 01-.007.006c-.184.172-.463.431-.28 1.03z"/></symbol><symbol viewBox="0 0 18 19" id="user" xmlns="http://www.w3.org/2000/svg"><path fill-rule="evenodd" clip-rule="evenodd" d="M0 7.002a7 7 0 017-7h4a7 7 0 017 7v4a7 7 0 01-7 7H7a7 7 0 01-7-7v-4zm7-5a5 5 0 00-5 5v4c0 1.285.485 2.457 1.281 3.343A5.012 5.012 0 016.598 11.2a4 4 0 114.803 0 5.012 5.012 0 013.318 3.144A4.982 4.982 0 0016 11.002v-4a5 5 0 00-5-5H7zm0 14c-.7 0-1.368-.144-1.973-.404A3 3 0 018 13.002h2a3 3 0 012.973 2.596 4.984 4.984 0 01-1.973.404H7zm0-8a2 2 0 114 0 2 2 0 01-4 0z"/></symbol><symbol viewBox="0 0 48 48" id="vk" xmlns="http://www.w3.org/2000/svg"><path d="M43.158 13.71c.28-.93 0-1.612-1.324-1.612h-4.386c-1.116 0-1.626.59-1.906 1.238 0 0-2.23 5.438-5.39 8.964-1.02 1.026-1.486 1.35-2.042 1.35-.278 0-.682-.324-.682-1.254V13.71c0-1.116-.322-1.612-1.252-1.612h-6.892c-.696 0-1.116.516-1.116 1.008 0 1.056 1.58 1.3 1.742 4.276v6.456c0 1.414-.254 1.672-.814 1.672-1.486 0-5.102-5.458-7.248-11.706-.418-1.214-.84-1.704-1.96-1.704H5.504C4.25 12.1 4 12.69 4 13.338c0 1.164 1.486 6.924 6.922 14.542 3.624 5.202 8.726 8.022 13.374 8.022 2.786 0 3.13-.626 3.13-1.706v-3.932c0-1.252.266-1.504 1.148-1.504.648 0 1.764.328 4.366 2.834 2.972 2.972 3.464 4.306 5.134 4.306h4.384c1.252 0 1.878-.626 1.518-1.862-.394-1.23-1.814-3.02-3.698-5.138-1.024-1.208-2.554-2.508-3.02-3.158-.65-.838-.462-1.208 0-1.952.002.002 5.344-7.522 5.9-10.08z"/></symbol></svg>